<svg width="237" height="71" viewBox="0 0 237 71" fill="none" xmlns="http://www.w3.org/2000/svg">
<rect x="21.5" y="14.5" width="194" height="41" fill="url(#paint0_linear_46_2)" stroke="black"/>
<g filter="url(#filter0_i_46_2)">
<path d="M45.0931 47C44.5615 47 44.1691 46.7342 43.9159 46.2025C43.84 46.0506 43.802 45.8987 43.802 45.7468V27.3671C43.802 26.8354 44.0425 26.4557 44.5235 26.2278C44.6754 26.1519 44.84 26.1139 45.0172 26.1139H55.9539C56.3083 26.1139 56.5741 26.2278 56.7513 26.4557C56.9286 26.6582 57.0172 26.8987 57.0172 27.1772C57.0172 27.4557 56.9286 27.7089 56.7513 27.9367C56.5741 28.1392 56.3083 28.2405 55.9539 28.2405H46.3463V35.1899H55.4602C55.84 35.1899 56.1184 35.3038 56.2957 35.5316C56.4729 35.7342 56.5615 35.9747 56.5615 36.2532C56.5615 36.5063 56.4602 36.7468 56.2577 36.9747C56.0805 37.2025 55.8146 37.3165 55.4602 37.3165H46.3463V44.8734H56.3336C56.6881 44.8734 56.9539 44.9873 57.1311 45.2152C57.3336 45.4177 57.4349 45.6582 57.4349 45.9367C57.4349 46.2152 57.3463 46.4684 57.1691 46.6962C56.9919 46.8987 56.7134 47 56.3336 47H45.0931ZM60.7661 40.3165C60.4623 40.3165 60.2091 40.2152 60.0066 40.0127C59.804 39.8101 59.7028 39.5696 59.7028 39.2911C59.7028 38.9873 59.804 38.7342 60.0066 38.5316C60.2091 38.3291 60.4623 38.2278 60.7661 38.2278H66.4623C66.7661 38.2278 67.0192 38.3291 67.2218 38.5316C67.4243 38.7342 67.5256 38.9873 67.5256 39.2911C67.5256 39.5696 67.4243 39.8101 67.2218 40.0127C67.0192 40.2152 66.7661 40.3165 66.4623 40.3165H60.7661ZM74.2141 42.8987C74.8217 43.6329 75.6065 44.2025 76.5685 44.6076C77.5558 45.0127 78.7331 45.2152 80.1001 45.2152C81.4672 45.2152 83.0115 45 84.7331 44.5696V38.1899H80.5938C80.2647 38.1899 80.0115 38.0886 79.8343 37.8861C79.6824 37.6835 79.6065 37.4557 79.6065 37.2025C79.6065 36.9494 79.6824 36.7215 79.8343 36.519C79.9862 36.3165 80.2394 36.2152 80.5938 36.2152H86.2141C86.5685 36.2152 86.8343 36.3165 87.0115 36.519C87.2141 36.7215 87.3153 36.9873 87.3153 37.3165V44.9873C87.3153 45.6709 86.9862 46.1013 86.328 46.2785C84.1255 46.962 82.1255 47.3038 80.328 47.3038C78.5305 47.3038 77.0115 47.1013 75.771 46.6962C74.5305 46.2658 73.4672 45.6076 72.5812 44.7215C70.6824 42.8228 69.7331 40.1013 69.7331 36.557C69.7331 33.6456 70.5812 31.1772 72.2774 29.1519C74.1255 27 76.7204 25.9241 80.0622 25.9241C82.1634 25.9241 84.1128 26.2785 85.9103 26.9873C86.29 27.1392 86.4799 27.3924 86.4799 27.7468C86.4799 28.1013 86.3913 28.3924 86.2141 28.6203C86.0622 28.8481 85.847 28.962 85.5685 28.962H85.4546C85.4039 28.962 85.252 28.924 84.9989 28.8481C84.771 28.7722 84.4293 28.6962 83.9736 28.6203C83.5432 28.519 83.1128 28.443 82.6824 28.3924C81.6951 28.2405 80.8596 28.1646 80.1761 28.1646C77.5685 28.1646 75.5938 29.0253 74.252 30.7468C73.6444 31.5316 73.2014 32.4557 72.9229 33.519C72.6444 34.5823 72.5052 35.6835 72.5052 36.8228C72.5052 37.962 72.6444 39.0759 72.9229 40.1646C73.2014 41.2278 73.6318 42.1392 74.2141 42.8987ZM109.457 45.4051C109.508 45.5823 109.533 45.7468 109.533 45.8987C109.533 46.0253 109.483 46.1646 109.381 46.3165C109.305 46.4684 109.204 46.5949 109.077 46.6962C108.824 46.8987 108.546 47 108.242 47C107.634 47 107.229 46.7468 107.027 46.2405L105.166 41.5316H94.799L92.9383 46.2405C92.761 46.7468 92.4066 47 91.875 47C91.318 47 90.9256 46.7722 90.6977 46.3165C90.6218 46.1646 90.5838 46.0253 90.5838 45.8987C90.5838 45.7468 90.6091 45.5823 90.6598 45.4051L97.6091 28.3924C98.0902 27.076 98.6724 26.3418 99.356 26.1899C99.5585 26.1392 99.7864 26.1139 100.04 26.1139C100.571 26.1139 100.964 26.2152 101.217 26.4177C101.698 26.8481 102.103 27.5063 102.432 28.3924L109.457 45.4051ZM95.5585 39.557H104.445L100.002 28.2785L95.5585 39.557ZM124.578 43.6203L131.527 28.2785C131.857 27.4684 132.173 26.9367 132.477 26.6835C132.907 26.3038 133.338 26.1139 133.768 26.1139C134.224 26.1139 134.578 26.1646 134.831 26.2658C135.084 26.3418 135.3 26.4684 135.477 26.6456C135.882 27.1013 136.084 27.6835 136.084 28.3924V45.8608C136.084 46.2405 135.958 46.5316 135.705 46.7342C135.451 46.9114 135.173 47 134.869 47C134.565 47 134.287 46.9114 134.034 46.7342C133.806 46.5316 133.692 46.2405 133.692 45.8608V28.6582L126.135 45.4051C125.831 46.1392 125.3 46.5063 124.54 46.5063C123.857 46.5063 123.338 46.1392 122.983 45.4051L115.464 28.7722V45.8608C115.464 46.2405 115.338 46.5316 115.084 46.7342C114.831 46.9114 114.553 47 114.249 47C113.945 47 113.667 46.9114 113.414 46.7342C113.186 46.5316 113.072 46.2405 113.072 45.8608V28.3924C113.072 27.2532 113.489 26.5443 114.325 26.2658C114.578 26.1646 114.844 26.1139 115.122 26.1139C115.426 26.1139 115.692 26.1519 115.92 26.2278C116.173 26.2785 116.401 26.3924 116.603 26.5696C116.932 26.8228 117.312 27.4051 117.743 28.3165L124.502 43.6203H124.578ZM143.062 47C142.53 47 142.138 46.7342 141.885 46.2025C141.809 46.0506 141.771 45.8987 141.771 45.7468V27.3671C141.771 26.8354 142.011 26.4557 142.492 26.2278C142.644 26.1519 142.809 26.1139 142.986 26.1139H153.923C154.277 26.1139 154.543 26.2278 154.72 26.4557C154.897 26.6582 154.986 26.8987 154.986 27.1772C154.986 27.4557 154.897 27.7089 154.72 27.9367C154.543 28.1392 154.277 28.2405 153.923 28.2405H144.315V35.1899H153.429C153.809 35.1899 154.087 35.3038 154.264 35.5316C154.442 35.7342 154.53 35.9747 154.53 36.2532C154.53 36.5063 154.429 36.7468 154.226 36.9747C154.049 37.2025 153.783 37.3165 153.429 37.3165H144.315V44.8734H154.302C154.657 44.8734 154.923 44.9873 155.1 45.2152C155.302 45.4177 155.404 45.6582 155.404 45.9367C155.404 46.2152 155.315 46.4684 155.138 46.6962C154.961 46.8987 154.682 47 154.302 47H143.062ZM160.14 27.3671C160.14 27.038 160.228 26.7722 160.406 26.5696C160.735 26.2658 161.077 26.1139 161.431 26.1139H167.735C171.077 26.1139 173.317 27.0253 174.456 28.8481C174.912 29.5316 175.14 30.443 175.14 31.5823C175.14 32.7215 174.76 33.6835 174.001 34.4684C173.266 35.2532 172.216 35.7975 170.849 36.1013V36.1772C172.191 36.3797 173.14 36.8734 173.697 37.6582C174.127 38.3418 174.406 39.2152 174.532 40.2785C174.811 42.6329 174.988 44.443 175.064 45.7089C175.064 46.1392 174.925 46.4684 174.646 46.6962C174.393 46.8987 174.102 47 173.773 47C173.444 47 173.14 46.9114 172.861 46.7342C172.583 46.5316 172.431 46.2278 172.406 45.8228C172.279 44.6329 172.178 43.5949 172.102 42.7089C172.026 41.7975 171.937 41.0253 171.836 40.3924C171.735 39.7595 171.596 39.2532 171.418 38.8734C171.266 38.4684 171.039 38.1519 170.735 37.9241C170.153 37.519 169.127 37.3165 167.659 37.3165H162.722V45.7848C162.722 46.3671 162.456 46.7468 161.925 46.9241C161.747 46.9747 161.532 47 161.279 47C161.051 47 160.798 46.8987 160.52 46.6962C160.266 46.4937 160.14 46.1899 160.14 45.7848V27.3671ZM166.558 35.2658C169.039 35.2658 170.684 34.8734 171.494 34.0886C172.102 33.5316 172.406 32.7342 172.406 31.6962C172.406 30.2025 171.861 29.2025 170.773 28.6962C170.013 28.3418 168.925 28.1646 167.507 28.1646H162.722V35.2658H166.558ZM182.312 31.3924C182.312 31.9494 182.477 32.4557 182.806 32.9114C183.16 33.3671 183.616 33.7595 184.173 34.0886C184.73 34.3924 185.363 34.6582 186.072 34.8861C186.78 35.1139 187.527 35.3544 188.312 35.6076C189.122 35.8608 189.894 36.1392 190.628 36.443C191.388 36.7468 192.059 37.1266 192.641 37.5823C193.907 38.5696 194.54 39.9241 194.54 41.6456C194.54 42.4557 194.337 43.2278 193.932 43.962C193.553 44.6709 193.008 45.2785 192.299 45.7848C190.882 46.7975 189.021 47.3038 186.717 47.3038C184.363 47.3038 182.401 46.7468 180.831 45.6329C179.869 45 179.363 44.557 179.312 44.3038C179.287 44.2025 179.274 44.1013 179.274 44C179.274 43.8734 179.299 43.7342 179.35 43.5823C179.401 43.4304 179.464 43.3038 179.54 43.2025C179.768 42.9241 179.97 42.7848 180.147 42.7848C180.35 42.7848 180.54 42.8481 180.717 42.9747C180.894 43.1013 181.097 43.2532 181.325 43.4304C181.578 43.6076 181.882 43.8101 182.236 44.038C182.616 44.2658 183.034 44.4684 183.489 44.6456C184.502 45 185.477 45.1772 186.413 45.1772C187.375 45.1772 188.16 45.1139 188.768 44.9873C189.401 44.8354 189.945 44.6076 190.401 44.3038C191.363 43.6456 191.844 42.8101 191.844 41.7975C191.844 40.0506 190.578 38.7848 188.046 38C187.337 37.7722 186.591 37.5443 185.806 37.3165C185.046 37.0633 184.287 36.7722 183.527 36.443C182.768 36.1139 182.097 35.7215 181.515 35.2658C180.932 34.8101 180.464 34.2658 180.11 33.6329C179.78 32.9747 179.616 32.2405 179.616 31.4304C179.616 30.6203 179.818 29.8608 180.223 29.1519C180.628 28.443 181.16 27.8608 181.818 27.4051C183.185 26.4177 184.869 25.9241 186.869 25.9241C189.73 25.9241 192.046 26.8608 193.818 28.7342C193.945 28.8608 194.008 29.0253 194.008 29.2278C194.008 29.4304 193.983 29.5949 193.932 29.7215C193.907 29.8481 193.856 29.962 193.78 30.0633C193.603 30.3165 193.363 30.443 193.059 30.443C192.755 30.443 192.426 30.2658 192.072 29.9114C191.287 29.3291 190.628 28.924 190.097 28.6962C189.16 28.3165 188.16 28.1266 187.097 28.1266C185.831 28.1266 184.755 28.3924 183.869 28.924C182.831 29.5063 182.312 30.3291 182.312 31.3924Z" fill="black"/>
</g>
<defs>
<filter id="filter0_i_46_2" x="43.802" y="25.9241" width="150.738" height="25.3798" filterUnits="userSpaceOnUse" color-interpolation-filters="sRGB">
<feFlood flood-opacity="0" result="BackgroundImageFix"/>
<feBlend mode="normal" in="SourceGraphic" in2="BackgroundImageFix" result="shape"/>
<feColorMatrix in="SourceAlpha" type="matrix" values="0 0 0 0 0 0 0 0 0 0 0 0 0 0 0 0 0 0 127 0" result="hardAlpha"/>
<feOffset dy="4"/>
<feGaussianBlur stdDeviation="2"/>
<feComposite in2="hardAlpha" operator="arithmetic" k2="-1" k3="1"/>
<feColorMatrix type="matrix" values="0 0 0 0 0 0 0 0 0 0 0 0 0 0 0 0 0 0 0.25 0"/>
<feBlend mode="normal" in2="shape" result="effect1_innerShadow_46_2"/>
</filter>
<linearGradient id="paint0_linear_46_2" x1="118.5" y1="15" x2="118.5" y2="55" gradientUnits="userSpaceOnUse">
<stop stop-color="#E9D204"/>
<stop offset="1" stop-color="#E9D204" stop-opacity="0"/>
</linearGradient>
</defs>
</svg>
